<svg xmlns="http://www.w3.org/2000/svg" viewBox="0 0 754.79 417.73"><defs><style>.a,.f{fill:#333}.a,.b,.c{fill-rule:evenodd}.b,.d{fill:#fff}.c,.e{fill:#f7931e}</style></defs><title>butterflight-logo</title><path class="a" d="M754.77 0c2.06 89.08-176.39 116-268.51 99.32q-.38 3.69-1 7.43c71.32 17.08 198.44-2.57 247.55-41.16-14.22 78.57-170.3 76.92-249.4 51q-.88 3.88-2 7.77c66.41 24.44 169.36 23.85 222.75-3.31-29.89 70.25-160.29 45.89-226.1 13.47q-1.2 3.2-2.59 6.37c60.79 31.09 141.55 44.09 198.38 26.82-39.85 60.42-151.08 21-203.63-16.22q-1.46 2.63-3.06 5.21c43.69 35.49 99.35 57.14 149.9 52.57-47.26 42.17-121.06-2.45-157.58-41.62q-2.15 2.71-4.5 5.33c33.76 38.24 80.73 65.68 127 68.45-52.16 32.35-112.06-18.78-136-59.41q-3.29 2.95-6.88 5.73c22.71 34.77 54.92 62.62 91.18 74.16C482 277 443.72 237.1 424.61 197.38c-13.12 7.53-28.73 13.54-47.22 17.4V184c53.67-10.86 84.31-58.47 94.16-111.18C552.51 86.68 702.7 61.73 754.77 0zM0 0c-2 89.08 176.41 116 268.53 99.32q.38 3.69 1 7.43C198.16 123.84 71 104.19 21.93 65.6c14.21 78.57 170.3 76.92 249.4 51q.87 3.88 2 7.77C206.91 148.77 104 148.17 50.57 121c29.89 70.25 160.29 45.89 226.1 13.47q1.2 3.2 2.59 6.37C218.46 171.95 137.7 185 80.87 167.68c39.85 60.42 151.08 21 203.63-16.22q1.46 2.63 3.06 5.21c-43.69 35.49-99.35 57.14-149.9 52.57 47.33 42.21 121.13-2.42 157.65-41.59q2.15 2.71 4.5 5.33c-33.76 38.24-80.73 65.68-127 68.45 52.16 32.35 112.06-18.78 136-59.41q3.29 2.95 6.88 5.73c-22.71 34.77-54.92 62.62-91.18 74.16 48.24 15.11 86.53-24.8 105.64-64.52 13.12 7.53 28.73 13.54 47.21 17.4V184c-53.67-10.86-84.31-58.47-94.16-111.18C202.28 86.68 52.09 61.73 0 0z"/><path class="b" d="M377.4 229.93c63.45 0 115.21-49.35 115.21-109.86S440.85 10.2 377.4 10.2 262.2 59.55 262.2 120.06s51.74 109.87 115.2 109.87z"/><path class="c" d="M377.4 223.33c59.64 0 108.29-46.39 108.29-103.26S437 16.8 377.4 16.8 269.11 63.19 269.11 120.06s48.64 103.27 108.29 103.27z"/><path class="b" d="M377.4 201.44c47 0 85.33-36.56 85.33-81.38S424.4 38.69 377.4 38.69s-85.33 36.56-85.33 81.38 38.33 81.37 85.33 81.37z"/><path class="a" d="M377.4 193.62c42.48 0 77.13-33 77.13-73.55s-34.65-73.56-77.13-73.56-77.13 33-77.13 73.55 34.64 73.56 77.13 73.56z"/><path class="d" d="M418.9 124.46l-96.69-35.2c-.93-.39-.64-1.51.24-1.94.48-.23 15.35-7.17 15.35-7.17a13 13 0 0 1 5.18-1 11.64 11.64 0 0 1 3.83.57l98.91 36a1.68 1.68 0 0 1 .16 3.27c-1.68.73-13.69 6.37-13.69 6.37-3.19 1.35-7.29 1.24-13.29-.9zm15.1 4.85c-4 2.07-4.94 2.71-7 8.71l-9.48 26c-.37 1 .09 1.85 1.12 1.37l15.86-7.4a14 14 0 0 0 6.1-6.66l10.06-27.61c.35-1-.29-2.05-1.52-1.48zm-21.28 39.45v3.38c0 8.07 6 17.35 6 21.48a8.79 8.79 0 1 1-17.58 0c0-4.14 6-13.41 6-21.48v-2.31a6.2 6.2 0 0 0-4.15-6l-96.49-35.14a3.43 3.43 0 0 1-2-4.39l10.69-29.38a3.45 3.45 0 0 1 3.23-2.26 3.38 3.38 0 0 1 1.16.21l102.15 37.18a3.43 3.43 0 0 1 2 4.39l-9.52 26.16a24.91 24.91 0 0 0-1.44 8.15zM338 127.36l-21-7.66a2.15 2.15 0 1 0-1.47 4l21 7.66a2.15 2.15 0 0 0 1.47-4z"/><path class="e" d="M198 364v-63.72a2.23 2.23 0 0 1 .39-1.6 2.93 2.93 0 0 1 1.74-.34h18.22a19.25 19.25 0 0 1 9.84 2.62 19.69 19.69 0 0 1 7.17 7.12A19.16 19.16 0 0 1 238 318a18.21 18.21 0 0 1-3.2 10.56 21 21 0 0 1 7.75 7.46 19.63 19.63 0 0 1 .19 19.91 19.74 19.74 0 0 1-17.15 9.84l-25.1.1q-2.49.01-2.49-1.87zm20.54-37.7a7.85 7.85 0 0 0 5.81-2.47 8.43 8.43 0 0 0-6-14.29h-7.07q-2 0-2 2.62v11.73a2.14 2.14 0 0 0 2.42 2.42zm6 28.2a8.43 8.43 0 1 0 0-16.86h-12.88a2.14 2.14 0 0 0-2.42 2.42v12.11a2.14 2.14 0 0 0 2.42 2.42zm46.76 8.96a24 24 0 0 1-8.72-8.72 23.29 23.29 0 0 1-3.25-12v-18.8a1.62 1.62 0 0 1 .53-1.26 1.75 1.75 0 0 1 1.21-.49h9.11a1.66 1.66 0 0 1 1.74 1.75v18.8a11.22 11.22 0 0 0 3.29 8.19 10.86 10.86 0 0 0 8 3.34 15 15 0 0 0 6.78-1.55 12.86 12.86 0 0 0 4.94-4.21 10 10 0 0 0 1.84-5.77v-43a1.67 1.67 0 0 1 .53-1.21 1.78 1.78 0 0 1 1.31-.53h8.92a1.79 1.79 0 0 1 1.31.53 1.68 1.68 0 0 1 .53 1.21v43a22.7 22.7 0 0 1-3.34 12.07 23.87 23.87 0 0 1-9.3 8.67 28.14 28.14 0 0 1-13.52 3.2 23.3 23.3 0 0 1-11.91-3.22zm-11.44-54.12a1.67 1.67 0 0 1-.53-1.21v-8.43a1.62 1.62 0 0 1 .53-1.26 1.75 1.75 0 0 1 1.21-.48h9.11a1.66 1.66 0 0 1 1.74 1.74v8.43a1.75 1.75 0 0 1-.48 1.21 1.62 1.62 0 0 1-1.26.53h-9.11a1.66 1.66 0 0 1-1.2-.53zm84.41 56.25a1.28 1.28 0 0 1-.34-.87V312.2a2.22 2.22 0 0 0-.73-1.6 2.33 2.33 0 0 0-1.7-.73h-16.27a1.37 1.37 0 0 1-1.16-1.16v-9.4a1 1 0 0 1 .34-.78 1.22 1.22 0 0 1 .82-.29h51.17a1.32 1.32 0 0 1 1 .39 1.21 1.21 0 0 1 .39.87v9.11a1.2 1.2 0 0 1-.39.87 1.32 1.32 0 0 1-1 .39h-16.09a2.32 2.32 0 0 0-2.31 2.33v52.52a1.29 1.29 0 0 1-.34.87 1.16 1.16 0 0 1-.92.39h-11.55a1.16 1.16 0 0 1-.92-.39zm69.19 0a1.28 1.28 0 0 1-.34-.87V312.2a2.22 2.22 0 0 0-.73-1.6 2.33 2.33 0 0 0-1.7-.73h-16.27a1.37 1.37 0 0 1-1.16-1.16v-9.4a1 1 0 0 1 .34-.78 1.22 1.22 0 0 1 .82-.29h51.17a1.32 1.32 0 0 1 1 .39 1.21 1.21 0 0 1 .39.87v9.11a1.21 1.21 0 0 1-.39.87 1.32 1.32 0 0 1-1 .39H429.5a2.32 2.32 0 0 0-2.33 2.33v52.52a1.29 1.29 0 0 1-.34.87 1.16 1.16 0 0 1-.92.39h-11.53a1.16 1.16 0 0 1-.92-.39zm49.42-56.06a1.78 1.78 0 0 1-.53-1.31v-8.33a1.63 1.63 0 0 1 .53-1.26 1.75 1.75 0 0 1 1.21-.48h45a1.78 1.78 0 0 1 1.31.53 1.67 1.67 0 0 1 .53 1.21v8.33a1.84 1.84 0 0 1-.53 1.26 1.71 1.71 0 0 1-1.31.58h-45a1.67 1.67 0 0 1-1.21-.53zm0 55.91a1.67 1.67 0 0 1-.53-1.21v-44.76a1.63 1.63 0 0 1 .53-1.26 1.75 1.75 0 0 1 1.21-.48h8.24a1.66 1.66 0 0 1 1.74 1.74v7q0 1.84 2.52 1.84H501a1.68 1.68 0 0 1 1.16.44 1.43 1.43 0 0 1 .49 1.11v8.33a1.43 1.43 0 0 1-.49 1.11 1.68 1.68 0 0 1-1.16.44h-24.7q-2.23 0-2.23 2v10.56a2 2 0 0 0 1.84 1.84h33.33a1.66 1.66 0 0 1 1.76 1.76v8.33a1.75 1.75 0 0 1-.48 1.21 1.62 1.62 0 0 1-1.26.53h-45.17a1.66 1.66 0 0 1-1.21-.52zm63.86.1a1.66 1.66 0 0 1-.53-1.21v-64.44a1.67 1.67 0 0 1 .53-1.21 1.78 1.78 0 0 1 1.31-.53h20.35a22.29 22.29 0 0 1 11.1 2.85 21.46 21.46 0 0 1 8 7.8 20.76 20.76 0 0 1 3 10.85 19.67 19.67 0 0 1-2.33 9.4 24.32 24.32 0 0 1-6.3 7.56 1.56 1.56 0 0 0-.58 1.26 1.07 1.07 0 0 0 .1.48.77.77 0 0 1 .1.29l11.24 25.1A3.21 3.21 0 0 1 573 365q0 1.07-1.26 1.07h-8.53a5 5 0 0 1-1.6-.19 1.8 1.8 0 0 1-.92-1l-10.17-22.68a1.17 1.17 0 0 0-.73-.78 8 8 0 0 0-1.89-.29h-7.75a3.6 3.6 0 0 0-2 .39 1.69 1.69 0 0 0-.53 1.45v21.32a1.67 1.67 0 0 1-.53 1.21 1.78 1.78 0 0 1-1.31.53h-7.75a1.77 1.77 0 0 1-1.29-.49zm21.66-36.87a8.94 8.94 0 0 0 6.49-2.67 8.84 8.84 0 0 0 0-12.74 9 9 0 0 0-6.49-2.62h-9q-1.74 0-1.75 1.94v14.54a1.61 1.61 0 0 0 .39 1.11 1.35 1.35 0 0 0 1.07.44z"/><path class="f" d="M205.45 417.18h-4.7V376.8h22.51v4.2h-17.81v14.78h16.74v4.17h-16.74zm62.97 0V376.8h4.7v36.13h17.81v4.25zm67.82 0V376.8h4.7v40.38zm72-21.18H422v19.64a44 44 0 0 1-6.52 1.55 49.64 49.64 0 0 1-7.68.53q-9.17 0-14.28-5.46T388.38 397a23.1 23.1 0 0 1 2.53-11 17.09 17.09 0 0 1 7.28-7.24 23.58 23.58 0 0 1 11.13-2.5 30.43 30.43 0 0 1 12 2.38l-1.82 4.14a26.91 26.91 0 0 0-10.5-2.36q-7.38 0-11.52 4.39T393.35 397q0 8.18 4 12.4t11.72 4.23a34.83 34.83 0 0 0 8.2-1v-12.41h-9zm92.54 21.18h-4.7v-19h-21.26v19h-4.7V376.8h4.7V394h21.27v-17.2h4.7zm60.84 0h-4.7V381h-12.79v-4.2h30.27v4.2h-12.78z"/></svg>